<?xml version="1.0" encoding="utf-8"?>
<!-- Svg Vector Icons : http://www.onlinewebfonts.com/icon -->
<!DOCTYPE svg PUBLIC "-//W3C//DTD SVG 1.1//EN" "http://www.w3.org/Graphics/SVG/1.1/DTD/svg11.dtd">
<svg version="1.1" xmlns="http://www.w3.org/2000/svg" xmlns:xlink="http://www.w3.org/1999/xlink" x="0px" y="0px" viewBox="0 0 1000 1000" enable-background="new 0 0 1000 1000" xml:space="preserve">
<metadata> Svg Vector Icons : http://www.onlinewebfonts.com/icon </metadata>
<g><path d="M832.8,561.3c-28.6-40.8-73.5-65.3-130.7-77.6c44.9-16.3,81.7-44.9,102.1-81.7c20.4-32.7,32.7-77.6,32.7-122.5c0-85.8-32.7-155.2-102.1-200.1C665.4,34.5,571.5,10,449,10H126.4v980H498c122.5,0,212.3-28.6,277.7-77.6c65.3-49,98-122.5,98-216.4C873.6,647,861.4,602.1,832.8,561.3z M351,185.6h93.9c53.1,0,89.8,12.3,118.4,28.6c28.6,16.3,40.8,49,40.8,89.8c0,36.7-12.3,65.3-40.8,85.7s-69.4,28.6-122.5,28.6H351V185.6z M608.2,785.8c-24.5,20.4-61.2,28.6-110.3,28.6H351v-245h147h8.2c49,0,85.7,12.3,106.2,32.7S645,655.2,645,696S632.7,765.4,608.2,785.8z"/></g>
</svg>